<svg width="42" height="37" viewBox="0 0 42 37" fill="none" xmlns="http://www.w3.org/2000/svg">
<path d="M18.5004 4.11133H22.6116M34.945 18.5003C33.5746 29.4634 30.1487 34.9449 24.6671 34.9449H16.4448C10.9633 34.9449 7.53737 29.4634 6.16699 18.5003" stroke="white" stroke-width="4.11114" stroke-linecap="round" stroke-linejoin="round"/>
<path d="M20.5555 30.8337V34.9448M16.4444 16.4447V16.4652M24.6667 16.4447V16.4652M18.5 26.7225C18.5 28.0929 19.1852 28.7781 20.5555 28.7781C22.6111 28.7781 22.6111 28.0936 22.6111 26.7225H18.5ZM6.16653 2.05566L18.5 4.04957L5.67731 17.7972C5.31738 18.2025 4.81448 18.4527 4.2741 18.4952C3.73372 18.5378 3.19786 18.3694 2.77895 18.0254C2.49413 17.7946 2.28004 17.4882 2.16117 17.1414C2.0423 16.7946 2.02345 16.4214 2.10678 16.0644L6.16653 2.05566ZM34.9445 2.05566L22.6111 4.04957L35.4338 17.7972C36.1696 18.6359 37.4667 18.7387 38.3321 18.0254C38.6169 17.7946 38.831 17.4882 38.9499 17.1414C39.0688 16.7946 39.0876 16.4214 39.0043 16.0644L34.9445 2.05566Z" stroke="white" stroke-width="4.11114" stroke-linecap="round" stroke-linejoin="round"/>
</svg>
