<svg width="55" height="54" viewBox="0 0 55 54" fill="none" xmlns="http://www.w3.org/2000/svg">
<path d="M52.9266 39.9109C52.7026 39.1697 51.6307 38.6471 51.6307 38.6471C51.5294 38.5937 51.4387 38.5457 51.3641 38.5084C49.5776 37.6445 47.9937 36.6046 46.6605 35.426C45.5886 34.4768 44.6714 33.4316 43.9354 32.3223C43.0342 30.9678 42.6129 29.8372 42.4316 29.2239C42.3302 28.824 42.3462 28.664 42.4316 28.456C42.5009 28.28 42.7089 28.1147 42.8049 28.0347C43.4075 27.6081 44.378 26.9788 44.9753 26.5949C45.4926 26.2589 45.9352 25.9709 46.1965 25.7896C47.0338 25.203 47.6097 24.6057 47.9457 23.9604C48.383 23.1285 48.4363 22.2113 48.095 21.31C47.6364 20.0941 46.5005 19.3689 45.0553 19.3689C44.7353 19.3689 44.4047 19.4062 44.0741 19.4755C43.2475 19.6568 42.4636 19.9501 41.8076 20.2061C41.7596 20.2274 41.7063 20.1901 41.7116 20.1368C41.781 18.5103 41.8609 16.3238 41.6796 14.2493C41.5196 12.3722 41.1303 10.7883 40.5011 9.40711C39.8665 8.02057 39.0399 6.99666 38.3946 6.2554C37.7813 5.55146 36.6988 4.51156 35.0669 3.57831C32.7738 2.26644 30.1607 1.59983 27.3023 1.59983C24.4492 1.59983 21.8415 2.26644 19.543 3.57831C17.8152 4.56489 16.7113 5.67945 16.21 6.2554C15.5647 6.99666 14.7381 8.02057 14.1035 9.40711C13.4689 10.7883 13.0849 12.3668 12.925 14.2493C12.7436 16.3345 12.8183 18.3449 12.893 20.1368C12.893 20.1901 12.845 20.2274 12.7916 20.2061C12.1357 19.9501 11.3518 19.6568 10.5252 19.4755C10.1999 19.4062 9.86924 19.3689 9.54394 19.3689C8.10407 19.3689 6.96818 20.0941 6.50422 21.31C6.16292 22.2113 6.21625 23.1285 6.65354 23.9604C6.99484 24.6057 7.56545 25.203 8.40271 25.7896C8.65869 25.9709 9.10664 26.2589 9.62393 26.5949C10.2052 26.9735 11.1491 27.5868 11.7571 28.0081C11.8317 28.0614 12.0877 28.2534 12.1677 28.456C12.253 28.6693 12.269 28.8293 12.157 29.2559C11.9704 29.8745 11.5491 30.9944 10.6638 32.3223C9.9279 33.4369 9.01065 34.4768 7.93875 35.426C6.60554 36.6046 5.02169 37.6445 3.23519 38.5084C3.14986 38.5511 3.04854 38.5991 2.94188 38.6631C2.94188 38.6631 1.87531 39.207 1.67267 39.9109C1.37403 40.9509 2.16862 41.9268 2.97388 42.4494C4.29642 43.3026 5.90694 43.7613 6.84019 44.0119C7.1015 44.0812 7.33614 44.1452 7.54946 44.2092C7.68278 44.2519 8.01875 44.3799 8.16273 44.5665C8.34405 44.8012 8.36538 45.0891 8.42937 45.4144C8.5307 45.9637 8.76001 46.641 9.43728 47.1103C10.1839 47.6222 11.1278 47.6596 12.3277 47.7076C13.5809 47.7556 15.1381 47.8142 16.9246 48.4062C17.7512 48.6781 18.5031 49.1421 19.367 49.6754C21.1802 50.7899 23.436 52.1765 27.2863 52.1765C31.1419 52.1765 33.4137 50.7846 35.2376 49.6647C36.1015 49.1368 36.8427 48.6781 37.6533 48.4115C39.4398 47.8196 40.997 47.7609 42.2502 47.7129C43.4501 47.6649 44.394 47.6329 45.1406 47.1156C45.8659 46.6143 46.0739 45.8677 46.1699 45.3078C46.2232 45.0305 46.2552 44.7798 46.4152 44.5772C46.5538 44.4012 46.8632 44.2785 47.0071 44.2305C47.2258 44.1612 47.4711 44.0972 47.7431 44.0226C48.6763 43.7719 49.8495 43.4786 51.2734 42.6734C52.9906 41.6975 53.1079 40.5029 52.9266 39.9109Z" fill="white"/>
<path d="M54.409 39.335C54.0303 38.3005 53.3051 37.7512 52.4838 37.2925C52.3292 37.2019 52.1852 37.1272 52.0679 37.0739C51.8226 36.9459 51.5719 36.8233 51.3213 36.6953C48.7562 35.3354 46.751 33.6182 45.3645 31.5864C44.8952 30.8985 44.5699 30.2799 44.3406 29.7732C44.2233 29.4319 44.2286 29.24 44.3139 29.064C44.3779 28.9307 44.5486 28.792 44.6446 28.7227C45.0872 28.4294 45.5405 28.1361 45.8498 27.9387C46.3991 27.5814 46.8363 27.2988 47.1137 27.1068C48.1696 26.3709 48.9055 25.587 49.3641 24.7124C50.0147 23.4805 50.0947 22.0726 49.5934 20.7501C48.9002 18.9156 47.1617 17.7744 45.0605 17.7744C44.6232 17.7744 44.1806 17.8224 43.7433 17.9183C43.626 17.945 43.514 17.9717 43.402 17.9983C43.4233 16.7505 43.3913 15.4172 43.2793 14.116C42.8847 9.52979 41.2795 7.12467 39.605 5.21018C38.9064 4.41026 37.6905 3.24237 35.8667 2.19713C33.3229 0.735932 30.4432 0 27.3022 0C24.1718 0 21.292 0.735932 18.7483 2.1918C16.9138 3.23703 15.6979 4.41026 15.0046 5.20485C13.3301 7.11934 11.7249 9.52445 11.3303 14.1107C11.2183 15.4119 11.1916 16.7451 11.2076 17.993C11.0957 17.9663 10.9783 17.9397 10.8663 17.913C10.4291 17.817 9.98109 17.769 9.54913 17.769C7.44799 17.769 5.70949 18.9102 5.01622 20.7447C4.51493 22.0673 4.59492 23.4752 5.24553 24.707C5.70415 25.5816 6.44542 26.3656 7.49599 27.1015C7.77863 27.2988 8.21059 27.5814 8.75987 27.9334C9.05851 28.1254 9.49047 28.408 9.9171 28.6907C9.98109 28.7333 10.2104 28.904 10.2904 29.064C10.3811 29.2453 10.3811 29.4426 10.2477 29.8052C10.0238 30.3012 9.69845 30.9091 9.23983 31.5811C7.87995 33.5702 5.93347 35.2554 3.4537 36.5993C2.13648 37.2979 0.771277 37.7618 0.19533 39.3297C-0.241963 40.5136 0.0460106 41.8628 1.14991 42.9987C1.51254 43.388 1.97117 43.7346 2.54711 44.0546C3.90165 44.8012 5.05355 45.1692 5.96013 45.4198C6.12012 45.4678 6.48808 45.5851 6.64807 45.7291C7.05336 46.0811 6.9947 46.6143 7.53332 47.3929C7.85862 47.8782 8.23192 48.2089 8.54122 48.4222C9.66645 49.2008 10.9357 49.2488 12.2795 49.3021C13.4901 49.3501 14.866 49.4034 16.4338 49.9207C17.0844 50.134 17.7617 50.55 18.5403 51.0299C20.4175 52.1872 22.9932 53.7657 27.2968 53.7657C31.6058 53.7657 34.1922 52.1765 36.0853 51.0193C36.8639 50.5447 37.5359 50.1287 38.1651 49.9207C39.733 49.4034 41.1089 49.3501 42.3194 49.3021C43.6633 49.2488 44.9272 49.2008 46.0578 48.4222C46.4097 48.1769 46.8577 47.7769 47.2096 47.169C47.5936 46.513 47.5883 46.0491 47.9509 45.7344C48.1002 45.6064 48.4255 45.4945 48.6015 45.4411C49.5134 45.1905 50.6813 44.8225 52.0625 44.0599C52.6758 43.724 53.1504 43.356 53.5291 42.9347C53.5344 42.9294 53.5397 42.924 53.5451 42.9187C54.5743 41.7988 54.8356 40.4923 54.409 39.335ZM50.5853 41.3882C48.2495 42.6787 46.6977 42.5401 45.4925 43.3133C44.4686 43.9746 45.0712 45.3985 44.3299 45.9104C43.4127 46.545 40.7089 45.8678 37.2159 47.0196C34.3362 47.9742 32.4963 50.71 27.3075 50.71C22.108 50.71 20.3215 47.9849 17.3991 47.0196C13.9061 45.8678 11.197 46.545 10.2851 45.9104C9.5438 45.3985 10.1464 43.9746 9.1225 43.3133C7.91728 42.5347 6.36543 42.6734 4.02964 41.3882C2.54178 40.5669 3.38437 40.0603 3.88032 39.8203C12.3382 35.73 13.6821 29.4053 13.7461 28.9307C13.8207 28.3654 13.9007 27.9174 13.2768 27.3361C12.6742 26.7762 9.99176 25.1177 9.25049 24.6004C8.01861 23.7418 7.47999 22.8832 7.87995 21.8273C8.15726 21.0967 8.83986 20.8247 9.5598 20.8247C9.78378 20.8247 10.0131 20.8514 10.2317 20.8994C11.5809 21.1927 12.8928 21.87 13.6501 22.0513C13.7567 22.078 13.8474 22.0886 13.9274 22.0886C14.3327 22.0886 14.4713 21.886 14.4447 21.422C14.3594 19.9448 14.146 17.0651 14.3807 14.372C14.7007 10.671 15.8952 8.83652 17.3137 7.21C17.9963 6.43141 21.1961 3.05038 27.3128 3.05038C33.4456 3.05038 36.6293 6.43141 37.3119 7.21C38.7304 8.83118 39.925 10.6657 40.245 14.372C40.4796 17.0651 40.277 19.9448 40.181 21.422C40.149 21.9073 40.2983 22.0886 40.6982 22.0886C40.7782 22.0886 40.8742 22.078 40.9756 22.0513C41.7328 21.87 43.0447 21.1927 44.3939 20.8994C44.6126 20.8514 44.8419 20.8247 45.0658 20.8247C45.7858 20.8247 46.4684 21.102 46.7457 21.8273C47.1456 22.8832 46.6017 23.7418 45.3751 24.6004C44.6339 25.1177 41.9515 26.7762 41.3489 27.3361C40.7249 27.9121 40.8049 28.36 40.8796 28.9307C40.9382 29.4053 42.2874 35.73 50.7453 39.8203C51.2253 40.0603 52.0732 40.5669 50.5853 41.3882Z" fill="black"/>
</svg>
